<mxfile host="65bd71144e" pages="2">
    <diagram id="IntXviJ0nQaIZy66ywME" name="Page-1">
        <mxGraphModel dx="335" dy="357" grid="1" gridSize="10" guides="1" tooltips="1" connect="1" arrows="1" fold="1" page="1" pageScale="1" pageWidth="850" pageHeight="1100" math="0" shadow="0">
            <root>
                <mxCell id="0"/>
                <mxCell id="1" parent="0"/>
                <mxCell id="Kw5RlLgbKS-JvPh_nfdh-1" value="Actor" style="shape=umlActor;verticalLabelPosition=bottom;verticalAlign=top;html=1;outlineConnect=0;" parent="1" vertex="1">
                    <mxGeometry x="160" y="90" width="30" height="60" as="geometry"/>
                </mxCell>
                <mxCell id="Kw5RlLgbKS-JvPh_nfdh-2" value="Actor" style="shape=umlActor;verticalLabelPosition=bottom;verticalAlign=top;html=1;outlineConnect=0;" parent="1" vertex="1">
                    <mxGeometry x="510" y="90" width="30" height="60" as="geometry"/>
                </mxCell>
                <mxCell id="Kw5RlLgbKS-JvPh_nfdh-3" value="Use Case" style="ellipse;whiteSpace=wrap;html=1;" parent="1" vertex="1">
                    <mxGeometry x="300" y="85" width="125" height="70" as="geometry"/>
                </mxCell>
            </root>
        </mxGraphModel>
    </diagram>
    <diagram id="5gkKrA1ccyv9Uf7G_AgA" name="wireframe">
        <mxGraphModel dx="335" dy="357" grid="1" gridSize="10" guides="1" tooltips="1" connect="1" arrows="1" fold="1" page="1" pageScale="1" pageWidth="850" pageHeight="1100" math="0" shadow="0">
            <root>
                <mxCell id="9SiY-YbfDBGQtD0jTZec-0"/>
                <mxCell id="9SiY-YbfDBGQtD0jTZec-1" parent="9SiY-YbfDBGQtD0jTZec-0"/>
            </root>
        </mxGraphModel>
    </diagram>
</mxfile>